<svg id="Слой_1" data-name="Слой 1" xmlns="http://www.w3.org/2000/svg" viewBox="0 0 70.88 62.46"><defs><style>.cls-1{fill:#fff;}</style></defs><title>logo</title><path class="cls-1" d="M34.14,12.54h11.7a0.27,0.27,0,0,1,.27.27V24.37a3,3,0,0,1-3,3H31.59a0.35,0.35,0,0,1-.35-0.35V15.44a2.9,2.9,0,0,1,2.9-2.9Z" transform="translate(-7.34 23.62) rotate(-45)"/><path class="cls-1" d="M34.14,37.61h11.7a0.27,0.27,0,0,1,.27.27V49.43a3,3,0,0,1-3,3H31.59a0.35,0.35,0,0,1-.35-0.35V40.51a2.9,2.9,0,0,1,2.9-2.9Z" transform="translate(-25.07 30.96) rotate(-45)"/><path class="cls-1" d="M21.6,25h11.7a0.27,0.27,0,0,1,.27.27V36.85a3,3,0,0,1-3,3H19a0.35,0.35,0,0,1-.35-0.35V27.93A2.9,2.9,0,0,1,21.6,25Z" transform="translate(17.11 64.32) rotate(-135)"/><path class="cls-1" d="M46.66,25h11.7a0.27,0.27,0,0,1,.27.27V36.85a3,3,0,0,1-3,3H44.11a0.35,0.35,0,0,1-.35-0.35V27.93a2.9,2.9,0,0,1,2.9-2.9Z" transform="translate(59.89 82.04) rotate(-135)"/><path class="cls-1" d="M10.62,70.11v-4l-2,3.29H8L6,66.19v3.92H4.55V63.43H5.82l2.5,4.15,2.46-4.15h1.28v6.67H10.62Z" transform="translate(-4.55 -9.58)"/><path class="cls-1" d="M18.67,65v5.13H17.25v-0.6a1.82,1.82,0,0,1-.7.51,2.27,2.27,0,0,1-.88.17,2.2,2.2,0,0,1-1.61-.58,2.31,2.31,0,0,1-.6-1.73V65H15v2.68a1,1,0,0,0,1,1.24,1.13,1.13,0,0,0,.87-0.35,1.47,1.47,0,0,0,.32-1V65h1.49Z" transform="translate(-4.55 -9.58)"/><path class="cls-1" d="M19.87,66.83h2.7V68h-2.7V66.83Z" transform="translate(-4.55 -9.58)"/><path class="cls-1" d="M27.73,63.76A3.21,3.21,0,0,1,29,65a3.75,3.75,0,0,1,0,3.56,3.21,3.21,0,0,1-1.23,1.23,3.55,3.55,0,0,1-1.78.44,4,4,0,0,1-1.6-.3A3.08,3.08,0,0,1,23.17,69l1-.91a2.22,2.22,0,0,0,1.73.79,1.87,1.87,0,0,0,1.24-.43,2,2,0,0,0,.66-1.15H25.08V66.14h2.69A1.94,1.94,0,0,0,27.1,65a1.88,1.88,0,0,0-1.22-.41,2.22,2.22,0,0,0-1.73.79l-1-.91a3.08,3.08,0,0,1,1.19-.89,4,4,0,0,1,1.6-.3A3.55,3.55,0,0,1,27.73,63.76Z" transform="translate(-4.55 -9.58)"/><path class="cls-1" d="M35.26,65v5.13H33.77V66.2H32.15l0,0.91a9.28,9.28,0,0,1-.19,1.68,2.31,2.31,0,0,1-.5,1,1.22,1.22,0,0,1-1,.38,3.19,3.19,0,0,1-.77-0.11l0.08-1.22,0.22,0a0.57,0.57,0,0,0,.5-0.24A1.48,1.48,0,0,0,30.71,68q0.06-.38.09-1L30.87,65h4.38Z" transform="translate(-4.55 -9.58)"/><path class="cls-1" d="M37.2,69.71a2,2,0,0,1-.62-1.6V65H38v1.74a1.8,1.8,0,0,1,.61-0.27,3.46,3.46,0,0,1,.84-0.1,2.21,2.21,0,0,1,1.51.48,1.75,1.75,0,0,1,.54,1.39,1.8,1.8,0,0,1-.67,1.51,2.93,2.93,0,0,1-1.84.52A2.74,2.74,0,0,1,37.2,69.71Zm2.58-.76a0.93,0.93,0,0,0,.26-0.7,0.86,0.86,0,0,0-.25-0.66,1,1,0,0,0-.72-0.24,1.44,1.44,0,0,0-.61.12,0.93,0.93,0,0,0-.41.35v0.42a0.93,0.93,0,0,0,.26.7A1.18,1.18,0,0,0,39.78,68.94Z" transform="translate(-4.55 -9.58)"/><path class="cls-1" d="M50,64.69H46.85v5.41H45.32V63.43H50v1.26Z" transform="translate(-4.55 -9.58)"/><path class="cls-1" d="M54.92,65.23a2.28,2.28,0,0,1,.94.92,2.83,2.83,0,0,1,.33,1.4,2.91,2.91,0,0,1-.31,1.38,2.26,2.26,0,0,1-.89.92,2.59,2.59,0,0,1-1.31.33,2,2,0,0,1-1.53-.62V72H50.66V67.56A2.7,2.7,0,0,1,51,66.17a2.43,2.43,0,0,1,1-.93,3.17,3.17,0,0,1,1.49-.33A3,3,0,0,1,54.92,65.23Zm-0.55,3.35a1.44,1.44,0,0,0,.36-1,1.47,1.47,0,0,0-.36-1,1.32,1.32,0,0,0-1.88,0,1.67,1.67,0,0,0,0,2.06,1.21,1.21,0,0,0,.94.39A1.23,1.23,0,0,0,54.37,68.57Z" transform="translate(-4.55 -9.58)"/><path class="cls-1" d="M62.38,65v4.27a2.78,2.78,0,0,1-.71,2.1,2.89,2.89,0,0,1-2.08.69,5,5,0,0,1-1.37-.18,3.1,3.1,0,0,1-1.08-.52l0.59-1.07a2.41,2.41,0,0,0,.79.42,3,3,0,0,0,.94.15,1.48,1.48,0,0,0,1.09-.34,1.42,1.42,0,0,0,.34-1V69.27a1.94,1.94,0,0,1-.68.44,2.28,2.28,0,0,1-.84.15,2.19,2.19,0,0,1-1.6-.58,2.31,2.31,0,0,1-.59-1.73V65h1.49v2.35a1,1,0,0,0,1,1.25,1.12,1.12,0,0,0,.86-0.35,1.47,1.47,0,0,0,.32-1V65h1.49Z" transform="translate(-4.55 -9.58)"/><path class="cls-1" d="M68.89,65v5.13H67.41V66.2H65.27v3.91H63.79V65h5.1Z" transform="translate(-4.55 -9.58)"/><path class="cls-1" d="M75.42,65v5.13H73.94V66.2H71.8v3.91H70.32V65h5.1Z" transform="translate(-4.55 -9.58)"/></svg>